<svg width="104" height="105" viewBox="0 0 104 105" fill="none" xmlns="http://www.w3.org/2000/svg">
<g filter="url(#filter0_d)">
<rect width="56" height="56" transform="translate(24 12)" fill="#3D55F9"/>
<path d="M70.9392 19.817C68.4541 14.8354 62.4012 12.8115 57.4197 15.2966C56.4441 15.7832 55.5542 16.4247 54.7843 17.1962L52.7929 19.1876C52.3555 19.6248 51.6465 19.6248 51.2093 19.1876L49.2157 17.1962C45.2767 13.2572 38.8903 13.2572 34.9513 17.1962C31.0123 21.1352 31.0123 27.5216 34.9513 31.4605L49.9369 47.0935C51.0294 48.233 52.8389 48.2708 53.9781 47.1784C54.007 47.1506 54.0352 47.1224 54.063 47.0935L69.0486 31.4605C72.121 28.3918 72.8828 23.7002 70.9392 19.817Z" fill="white"/>
<path d="M34.3578 49.7125C33.017 50.6076 32.5734 52.3734 33.3318 53.796L36.32 58.7621C36.6392 59.2923 36.4682 59.9807 35.9381 60.2999C35.408 60.6191 34.7195 60.4482 34.4003 59.918L31.3718 54.878C30.4565 53.1072 30.5635 50.9815 31.6518 49.3116C31.7739 49.1286 31.8394 48.9135 31.84 48.6933V42.2399C31.84 40.3843 30.3357 38.8799 28.48 38.8799C26.6243 38.8799 25.12 40.3843 25.12 42.2399V53.8229L25.12 53.8252C25.12 56.1147 25.8994 58.3361 27.33 60.1236L33.296 67.5788C33.5082 67.8444 33.8296 67.9994 34.1696 67.9999H43.04C43.6585 67.9999 44.16 67.4983 44.16 66.8799V60.1375L44.16 60.1373C44.1619 58.1439 43.5717 56.1949 42.4642 54.5375C38.2374 50.1359 36.9158 48.0056 34.3578 49.7125Z" fill="white"/>
<path d="M75.52 38.8799C73.6644 38.8799 72.16 40.3843 72.16 42.2399V48.6933C72.1606 48.9135 72.226 49.1286 72.3481 49.3116C73.4365 50.9815 73.5434 53.1072 72.6281 54.878L69.5997 59.918C69.2804 60.4482 68.5921 60.6191 68.0619 60.2999C67.5317 59.9807 67.3608 59.2923 67.68 58.7621L70.6681 53.796C71.4266 52.3734 70.9828 50.6076 69.6422 49.7125C67.0841 48.0056 65.7625 50.1359 61.5357 54.5442C60.4282 56.2018 59.838 58.1508 59.84 60.1442V66.8799C59.84 67.4983 60.3415 67.9999 60.96 67.9999H69.8304C70.1704 67.9994 70.4918 67.8444 70.704 67.5788L76.6713 60.1218C78.1016 58.3338 78.8804 56.1124 78.88 53.8229V42.2399C78.88 40.3843 77.3756 38.8799 75.52 38.8799Z" fill="white"/>
</g>
<defs>
<filter id="filter0_d" x="0" y="0.5714" width="104" height="104" filterUnits="userSpaceOnUse" color-interpolation-filters="sRGB">
<feFlood flood-opacity="0" result="BackgroundImageFix"/>
<feColorMatrix in="SourceAlpha" type="matrix" values="0 0 0 0 0 0 0 0 0 0 0 0 0 0 0 0 0 0 127 0"/>
<feOffset dy="12.5714"/>
<feGaussianBlur stdDeviation="12"/>
<feColorMatrix type="matrix" values="0 0 0 0 0.239216 0 0 0 0 0.333333 0 0 0 0 0.976471 0 0 0 0.2 0"/>
<feBlend mode="normal" in2="BackgroundImageFix" result="effect1_dropShadow"/>
<feBlend mode="normal" in="SourceGraphic" in2="effect1_dropShadow" result="shape"/>
</filter>
</defs>
</svg>
