<svg width="104" height="105" viewBox="0 0 104 105" fill="none" xmlns="http://www.w3.org/2000/svg">
<g clip-path="url(#clip0)" filter="url(#filter0_d)">
<rect width="56" height="56" transform="translate(24 12)" fill="#3D55F9"/>
<path d="M56.9871 14.0502C59.7208 16.7839 59.7208 21.2161 56.9871 23.9497C54.2533 26.6834 49.8212 26.6834 47.0876 23.9497C44.3539 21.2161 44.3539 16.7839 47.0876 14.0502C49.8212 11.3166 54.2533 11.3166 56.9871 14.0502Z" fill="white"/>
<path d="M78.7424 33.014C77.2577 31.7762 75.0506 31.9763 73.813 33.461C73.8125 33.4614 73.8123 33.4617 73.812 33.462C72.7858 34.6928 71.2706 35.4103 69.668 35.4243H69.6144C68.0307 35.425 66.5255 34.7359 65.4914 33.5367C63.7134 31.488 63.7134 31.4694 63.5547 31.313C62.3932 30.1489 60.8149 29.4963 59.1704 29.5H44.8297H44.8297C43.1857 29.4959 41.6082 30.1486 40.4477 31.313C40.2867 31.4694 40.261 31.5184 38.511 33.5367C37.4759 34.736 35.9699 35.425 34.3857 35.4243H34.332C32.7303 35.4117 31.215 34.696 30.188 33.4667C28.8873 32.0368 26.6736 31.9322 25.2438 33.233C23.8983 34.4571 23.7147 36.5077 24.8214 37.9513C27.1614 40.7555 30.6146 42.391 34.2667 42.4243H34.3857C37.5402 42.4376 40.5787 41.2353 42.8697 39.0667C43.1047 38.8464 43.4739 38.8583 43.6942 39.0933C43.7954 39.2011 43.8518 39.3434 43.852 39.4913L43.8824 51.76C43.884 52.2537 44.1961 52.6929 44.6617 52.8567L51.2254 55.1737C51.7275 55.3508 52.2749 55.3508 52.777 55.1737L59.3384 52.8567C59.8039 52.6929 60.1161 52.2537 60.1177 51.76L60.148 39.4867C60.1485 39.1644 60.4101 38.9038 60.7323 38.9043C60.8802 38.9045 61.0223 38.9607 61.1304 39.062C63.4215 41.2301 66.4599 42.4318 69.6144 42.4173H69.7334C73.3906 42.3861 76.8489 40.7467 79.188 37.935C80.4205 36.4519 80.221 34.2515 78.7424 33.014Z" fill="white"/>
<path d="M65.6967 53.0946L57.0634 56.1419C56.8307 56.2234 56.6751 56.4434 56.676 56.6903C56.6763 56.9369 56.8312 57.1572 57.0634 57.2409L62.045 59.0003C62.8547 59.2833 63.5913 59.7432 64.201 60.3466C64.5188 60.6609 64.9883 60.7659 65.4097 60.6173L68.023 59.6839C69.8346 59.0096 70.7568 56.9945 70.0827 55.1829C69.424 53.4131 67.4803 52.4849 65.6897 53.0853L65.6967 53.0946Z" fill="white"/>
<path d="M61.2703 61.2013L38.3057 53.0953C36.4941 52.421 34.4789 53.3431 33.8047 55.1547C33.1305 56.9663 34.0526 58.9816 35.8642 59.6557C35.9 59.669 35.9361 59.6818 35.9723 59.694L58.937 67.8C59.3115 67.9334 59.7061 68.0014 60.1037 68.0007C62.0366 67.9997 63.603 66.4322 63.6023 64.4992C63.6016 63.0171 62.6675 61.696 61.2703 61.2013Z" fill="white"/>
</g>
<defs>
<filter id="filter0_d" x="0" y="0.5714" width="104" height="104" filterUnits="userSpaceOnUse" color-interpolation-filters="sRGB">
<feFlood flood-opacity="0" result="BackgroundImageFix"/>
<feColorMatrix in="SourceAlpha" type="matrix" values="0 0 0 0 0 0 0 0 0 0 0 0 0 0 0 0 0 0 127 0"/>
<feOffset dy="12.5714"/>
<feGaussianBlur stdDeviation="12"/>
<feColorMatrix type="matrix" values="0 0 0 0 0.239216 0 0 0 0 0.333333 0 0 0 0 0.976471 0 0 0 0.2 0"/>
<feBlend mode="normal" in2="BackgroundImageFix" result="effect1_dropShadow"/>
<feBlend mode="normal" in="SourceGraphic" in2="effect1_dropShadow" result="shape"/>
</filter>
<clipPath id="clip0">
<rect width="56" height="56" fill="white" transform="translate(24 12)"/>
</clipPath>
</defs>
</svg>
